<svg width="65" height="59" viewBox="0 0 65 59" fill="none" xmlns="http://www.w3.org/2000/svg">
    <path
        d="M61.5789 0V6.84211H0V0H61.5789ZM0 41.0526H30.7895V34.2105H0V41.0526ZM0 23.9474H61.5789V17.1053H0V23.9474ZM51.3158 30.7895C53.1304 30.7895 54.8707 31.5103 56.1539 32.7935C57.437 34.0766 58.1579 35.8169 58.1579 37.6316C58.1579 39.4462 57.437 41.1865 56.1539 42.4697C54.8707 43.7528 53.1304 44.4737 51.3158 44.4737C47.5184 44.4737 44.4737 41.4289 44.4737 37.6316C44.4737 33.8342 47.5526 30.7895 51.3158 30.7895ZM37.6316 58.1579V54.7368C37.6316 50.9737 43.7553 47.8947 51.3158 47.8947C58.8763 47.8947 65 50.9737 65 54.7368V58.1579H37.6316Z"
        fill="#394D74" />
</svg>
    