<svg width="50" height="39" viewBox="0 0 50 39" fill="none" xmlns="http://www.w3.org/2000/svg">
    <mask id="mask0_3_67" style="mask-type:luminance" maskUnits="userSpaceOnUse" x="0" y="0"
        width="50" height="39">
        <path d="M0 0H50V38.7324H0V0Z" fill="white" />
    </mask>
    <g mask="url(#mask0_3_67)">
        <path
            d="M42.3271 3.44916C39.1403 1.9869 35.7229 0.909579 32.1498 0.292551C32.0847 0.280643 32.0197 0.310403 31.9862 0.369924C31.5467 1.15162 31.0599 2.17141 30.7189 2.97296C26.8758 2.39761 23.0525 2.39761 19.2882 2.97296C18.9472 2.15359 18.4427 1.15162 18.0012 0.369924C17.9677 0.312388 17.9027 0.282629 17.8376 0.292551C14.2665 0.907608 10.8491 1.98493 7.66028 3.44916C7.63268 3.46106 7.60901 3.48092 7.59331 3.50669C1.11123 13.1908 -0.66448 22.6368 0.206625 31.9658C0.210567 32.0114 0.236187 32.0551 0.271663 32.0828C4.54835 35.2235 8.69106 37.1302 12.7568 38.394C12.8219 38.4139 12.8908 38.3901 12.9323 38.3365C13.894 37.0231 14.7513 35.6382 15.4864 34.1819C15.5298 34.0966 15.4884 33.9954 15.3997 33.9617C14.0399 33.4459 12.745 32.8169 11.4994 32.1027C11.4009 32.0451 11.393 31.9042 11.4837 31.8368C11.7458 31.6404 12.008 31.436 12.2582 31.2297C12.3035 31.192 12.3666 31.184 12.4199 31.2078C20.6027 34.9438 29.4616 34.9438 37.5478 31.2078C37.6011 31.182 37.6642 31.19 37.7114 31.2277C37.9618 31.434 38.2239 31.6404 38.488 31.8368C38.5786 31.9042 38.5727 32.0451 38.4742 32.1027C37.2286 32.8308 35.9337 33.4459 34.5719 33.9597C34.4832 33.9935 34.4438 34.0966 34.4872 34.1819C35.238 35.6362 36.0954 37.0211 37.0394 38.3345C37.0788 38.3901 37.1497 38.4139 37.2148 38.394C41.3003 37.1302 45.443 35.2235 49.7196 32.0828C49.7571 32.0551 49.7808 32.0134 49.7847 31.9678C50.8273 21.1825 48.0385 11.8139 42.3921 3.50866C42.3783 3.48092 42.3547 3.46106 42.3271 3.44916ZM16.7084 26.2854C14.2448 26.2854 12.2149 24.0237 12.2149 21.246C12.2149 18.4683 14.2054 16.2066 16.7084 16.2066C19.231 16.2066 21.2413 18.4882 21.2018 21.246C21.2018 24.0237 19.2113 26.2854 16.7084 26.2854ZM33.3224 26.2854C30.8589 26.2854 28.8289 24.0237 28.8289 21.246C28.8289 18.4683 30.8194 16.2066 33.3224 16.2066C35.8451 16.2066 37.8553 18.4882 37.8159 21.246C37.8159 24.0237 35.8451 26.2854 33.3224 26.2854Z"
            fill="white" />
    </g>
</svg>
    