<svg width="65" height="58" viewBox="0 0 65 58" fill="none" xmlns="http://www.w3.org/2000/svg">
    <path
        d="M5.83556 57.7778C4.17204 57.7778 2.78417 57.2217 1.67194 56.1094C0.559722 54.9972 0.00240741 53.6082 0 51.9422V16.6689C0 15.0054 0.557315 13.6175 1.67194 12.5053C2.78657 11.3931 4.17324 10.8357 5.83194 10.8333H21.6667V5.83195C21.6667 4.17084 22.224 2.78297 23.3386 1.66834C24.4532 0.553711 25.8411 -0.00239962 27.5022 7.78257e-06H37.5014C39.1625 7.78257e-06 40.5504 0.556118 41.665 1.66834C42.7796 2.78056 43.3357 4.16843 43.3333 5.83195V10.8333H59.1681C60.8292 10.8333 62.2158 11.3907 63.3281 12.5053C64.4403 13.6199 64.9976 15.0078 65 16.6689V51.9458C65 53.6069 64.4427 54.9948 63.3281 56.1094C62.2134 57.2241 60.8268 57.7802 59.1681 57.7778H5.83556ZM5.83556 54.1667H59.1681C59.7218 54.1667 60.2309 53.9356 60.6956 53.4733C61.1602 53.0111 61.3913 52.5007 61.3889 51.9422V16.6689C61.3889 16.1128 61.1578 15.6024 60.6956 15.1378C60.2333 14.6732 59.7242 14.442 59.1681 14.4445H5.83194C5.27824 14.4445 4.76907 14.6756 4.30444 15.1378C3.83981 15.6 3.6087 16.1104 3.61111 16.6689V51.9458C3.61111 52.4995 3.84222 53.0087 4.30444 53.4733C4.76667 53.938 5.27583 54.1691 5.83194 54.1667M25.2778 10.8333H39.7222V5.83195C39.7222 5.27825 39.4911 4.76908 39.0289 4.30445C38.5667 3.83982 38.0575 3.60871 37.5014 3.61112H27.4986C26.9449 3.61112 26.4357 3.84223 25.9711 4.30445C25.5065 4.76667 25.2754 5.27584 25.2778 5.83195V10.8333Z"
        fill="#394D74" />
</svg>
    