<svg width="50" height="49" viewBox="0 0 50 49" fill="none" xmlns="http://www.w3.org/2000/svg">
    <path fill-rule="evenodd" clip-rule="evenodd"
        d="M25.0001 0C11.1947 0 0 11.1961 0 25.0077C0 36.0569 7.16328 45.4308 17.0967 48.7375C18.346 48.969 18.8048 48.195 18.8048 47.5345C18.8048 46.9382 18.7815 44.9681 18.7709 42.8785C11.8157 44.3913 10.3481 39.9279 10.3481 39.9279C9.21085 37.0373 7.57228 36.2689 7.57228 36.2689C5.30413 34.7167 7.74326 34.7485 7.74326 34.7485C10.2538 34.925 11.5757 37.3257 11.5757 37.3257C13.8054 41.1488 17.4241 40.0434 18.8507 39.4046C19.075 37.7881 19.723 36.6851 20.4379 36.0606C14.8852 35.4281 9.04772 33.2838 9.04772 23.7016C9.04772 20.9715 10.0244 18.7405 11.6237 16.9892C11.3641 16.3593 10.5085 13.8158 11.8659 10.3712C11.8659 10.3712 13.9652 9.69906 18.7427 12.9346C20.7367 12.3804 22.8755 12.1026 25.0001 12.0932C27.1247 12.1026 29.265 12.3804 31.263 12.9346C36.0348 9.69906 38.1312 10.3712 38.1312 10.3712C39.4919 13.8158 38.6359 16.3593 38.3763 16.9892C39.9792 18.7405 40.9491 20.9713 40.9491 23.7016C40.9491 33.3065 35.1007 35.4216 29.5339 36.0406C30.4305 36.8167 31.2295 38.3387 31.2295 40.6717C31.2295 44.0176 31.2005 46.7107 31.2005 47.5345C31.2005 48.1999 31.6505 48.9798 32.9179 48.7342C42.8457 45.4237 50 36.0532 50 25.0077C50 11.1961 38.8069 0 25.0001 0Z"
        fill="white" />
    <path
        d="M9.37559 35.617C9.32109 35.7416 9.12681 35.779 8.95026 35.6936C8.7702 35.6117 8.66897 35.4417 8.72737 35.3166C8.7809 35.1883 8.97517 35.1525 9.15485 35.2387C9.3353 35.3203 9.43808 35.4919 9.37559 35.617ZM10.5965 36.7182C10.4781 36.8292 10.2467 36.7776 10.0896 36.6023C9.92726 36.4273 9.89689 36.1936 10.017 36.0808C10.139 35.9701 10.3635 36.0218 10.5262 36.1969C10.6886 36.3738 10.7203 36.606 10.5965 36.7182ZM11.4341 38.127C11.2819 38.2339 11.0331 38.1337 10.8795 37.9106C10.7275 37.6877 10.7275 37.4201 10.8828 37.3128C11.037 37.2056 11.2819 37.302 11.4376 37.5234C11.5895 37.7502 11.5897 38.0176 11.4341 38.127ZM12.8505 39.7589C12.7144 39.9104 12.4248 39.8698 12.2126 39.6628C11.9957 39.4606 11.9352 39.1735 12.0716 39.0218C12.2093 38.8698 12.5007 38.9125 12.7144 39.1178C12.9299 39.3197 12.9955 39.6089 12.8505 39.7589ZM14.6811 40.3098C14.6213 40.5062 14.3422 40.5955 14.0611 40.5121C13.7804 40.4261 13.5966 40.1959 13.6533 39.9973C13.7117 39.7996 13.992 39.7065 14.2752 39.7958C14.5555 39.8814 14.7395 40.1099 14.6811 40.3098ZM16.7647 40.5434C16.7717 40.7504 16.5333 40.922 16.2382 40.9257C15.9413 40.9322 15.7013 40.7647 15.6982 40.5613C15.6982 40.3523 15.9312 40.1823 16.2278 40.1774C16.5229 40.1715 16.7647 40.3378 16.7647 40.5434ZM18.8114 40.4641C18.8468 40.666 18.6416 40.8734 18.3487 40.9285C18.0606 40.9816 17.7939 40.857 17.7571 40.6569C17.7213 40.4499 17.9303 40.2427 18.2178 40.189C18.5114 40.1374 18.774 40.2588 18.8114 40.4641Z"
        fill="white" />
</svg>
    