<svg width="50" height="50" viewBox="0 0 50 50" fill="none" xmlns="http://www.w3.org/2000/svg">
    <path
        d="M42.5979 42.6083H35.1938V31.0062C35.1938 28.2396 35.1375 24.6792 31.3354 24.6792C27.475 24.6792 26.8854 27.6896 26.8854 30.8021V42.6083H19.4813V18.75H26.5938V22.0021H26.6896C27.6833 20.1271 30.1 18.1479 33.7104 18.1479C41.2125 18.1479 42.6 23.0854 42.6 29.5125L42.5979 42.6083ZM11.1188 15.4854C8.73542 15.4854 6.82083 13.5562 6.82083 11.1833C6.82083 8.8125 8.7375 6.88542 11.1188 6.88542C13.4938 6.88542 15.4188 8.8125 15.4188 11.1833C15.4188 13.5562 13.4917 15.4854 11.1188 15.4854ZM14.8312 42.6083H7.40625V18.75H14.8312V42.6083ZM46.3021 0H3.68958C1.65 0 0 1.6125 0 3.60208V46.3979C0 48.3896 1.65 50 3.68958 50H46.2958C48.3333 50 50 48.3896 50 46.3979V3.60208C50 1.6125 48.3333 0 46.2958 0H46.3021Z"
        fill="white" />
</svg>
    