<svg width="65" height="84" viewBox="0 0 65 84" fill="none" xmlns="http://www.w3.org/2000/svg">
    <path
        d="M16.25 53.3929C15.6343 53.3929 15.0439 53.1483 14.6085 52.7129C14.1732 52.2776 13.9286 51.6871 13.9286 51.0714C13.9286 50.4557 14.1732 49.8653 14.6085 49.4299C15.0439 48.9946 15.6343 48.75 16.25 48.75H48.75C49.3657 48.75 49.9562 48.9946 50.3915 49.4299C50.8269 49.8653 51.0714 50.4557 51.0714 51.0714C51.0714 51.6871 50.8269 52.2776 50.3915 52.7129C49.9562 53.1483 49.3657 53.3929 48.75 53.3929H16.25ZM16.25 65C15.6343 65 15.0439 64.7554 14.6085 64.3201C14.1732 63.8847 13.9286 63.2943 13.9286 62.6786C13.9286 62.0629 14.1732 61.4724 14.6085 61.0371C15.0439 60.6017 15.6343 60.3571 16.25 60.3571H48.75C49.3657 60.3571 49.9562 60.6017 50.3915 61.0371C50.8269 61.4724 51.0714 62.0629 51.0714 62.6786C51.0714 63.2943 50.8269 63.8847 50.3915 64.3201C49.9562 64.7554 49.3657 65 48.75 65H16.25Z"
        fill="#394D74" />
    <path fill-rule="evenodd" clip-rule="evenodd"
        d="M38.0018 6.48802e-07H6.96429C5.11724 6.48802e-07 3.34585 0.733736 2.03979 2.03979C0.733735 3.34585 0 5.11724 0 6.96429V76.6071C0 78.4542 0.733735 80.2256 2.03979 81.5316C3.34585 82.8377 5.11724 83.5714 6.96429 83.5714H58.0357C59.8828 83.5714 61.6541 82.8377 62.9602 81.5316C64.2663 80.2256 65 78.4542 65 76.6071V28.795C64.9995 27.0515 64.3451 25.3715 63.1661 24.0871L43.1368 2.25643C42.4841 1.54489 41.6905 0.976859 40.8065 0.588411C39.9225 0.199962 38.9674 -0.000416122 38.0018 6.48802e-07ZM4.64286 6.96429C4.64286 6.34861 4.88744 5.75814 5.32279 5.32279C5.75814 4.88744 6.3486 4.64286 6.96429 4.64286H38.0018C38.3239 4.6425 38.6426 4.70919 38.9375 4.83868C39.2325 4.96817 39.4972 5.15763 39.715 5.395L59.7443 27.2257C60.1379 27.6536 60.3566 28.2136 60.3571 28.795V76.6071C60.3571 77.2228 60.1126 77.8133 59.6772 78.2486C59.2419 78.684 58.6514 78.9286 58.0357 78.9286H6.96429C6.3486 78.9286 5.75814 78.684 5.32279 78.2486C4.88744 77.8133 4.64286 77.2228 4.64286 76.6071V6.96429Z"
        fill="#394D74" />
    <path d="M39.4643 5.10703V26.9285H61.2857" fill="#394D74" />
    <path d="M39.4643 5.10703V26.9285H61.2857" stroke="#394D74" stroke-linecap="round"
        stroke-linejoin="round" />
    <path
        d="M23.8365 23.8318C24.4995 23.8521 25.1598 23.7391 25.7783 23.4994C26.3968 23.2597 26.9609 22.8982 27.437 22.4364C27.9132 21.9746 28.2918 21.4219 28.5503 20.811C28.8088 20.2001 28.942 19.5436 28.942 18.8802C28.942 18.2169 28.8088 17.5603 28.5503 16.9495C28.2918 16.3386 27.9132 15.7859 27.437 15.3241C26.9609 14.8623 26.3968 14.5008 25.7783 14.2611C25.1598 14.0214 24.4995 13.9083 23.8365 13.9286C22.5495 13.968 21.3284 14.507 20.4319 15.4313C19.5355 16.3556 19.0342 17.5926 19.0342 18.8802C19.0342 20.1678 19.5355 21.4049 20.4319 22.3292C21.3284 23.2535 22.5495 23.7924 23.8365 23.8318Z"
        fill="#394D74" />
    <path fill-rule="evenodd" clip-rule="evenodd"
        d="M33.735 34.5615C33.735 29.2965 29.3011 25.4847 23.8318 25.4847C18.3625 25.4847 13.9286 29.2918 13.9286 34.5615V37.0408C13.9298 37.4783 14.1045 37.8976 14.4143 38.2065C14.7242 38.5155 15.1439 38.689 15.5814 38.689H32.0868C32.5235 38.6878 32.9421 38.5137 33.2509 38.2049C33.5597 37.8961 33.7338 37.4775 33.735 37.0408V34.5615Z"
        fill="#394D74" />
</svg>
    