<svg width="50" height="36" viewBox="0 0 50 36" fill="none" xmlns="http://www.w3.org/2000/svg">
    <path
        d="M38.9828 20.2773C36.625 20.2773 34.5815 19.3342 32.5381 17.7623L33.0096 15.5617V15.4045C33.4812 13.0467 34.7387 8.95976 38.9828 8.95976C42.1266 8.95976 44.6416 11.4748 44.6416 14.6186C44.6416 17.7623 41.9694 20.2773 38.9828 20.2773ZM38.9828 3.30096C33.6384 3.30096 29.5515 6.75912 27.8224 12.4179C25.3074 8.64538 23.2639 3.92972 22.1636 0H16.5048V14.9329C16.5048 17.9195 14.147 20.2773 11.1604 20.2773C8.17382 20.2773 5.81598 17.9195 5.81598 14.9329V0.157189H0V15.0901C0 21.2205 5.03004 26.2505 11.0032 26.2505C17.1336 26.2505 22.0064 21.2205 22.0064 15.0901V12.5751C23.1067 14.9329 24.5214 17.2908 26.0933 19.3342L22.6352 35.839H28.4512L30.9662 23.8927C33.1668 25.3074 35.6818 26.2505 38.6684 26.2505C44.956 26.2505 49.986 21.0633 49.986 14.7757C50.3004 8.331 45.2704 3.30096 38.9828 3.30096Z"
        fill="white" />
</svg>
    