<svg width="65" height="65" viewBox="0 0 65 65" fill="none" xmlns="http://www.w3.org/2000/svg">
    <path
        d="M28.4375 60.9375H32.5V65H0V60.9375H4.0625V34.5312C4.0625 32.9232 4.35872 31.4103 4.95117 29.9927C5.54362 28.575 6.34766 27.3161 7.36328 26.2158C8.37891 25.1156 9.58496 24.2269 10.9814 23.5498C12.3779 22.8727 13.8802 22.4813 15.4883 22.3755L34.7852 2.47559C35.5257 1.71387 36.3932 1.11084 37.3877 0.666504C38.3822 0.222168 39.4189 0 40.498 0C41.2598 0 42.0215 0.105794 42.7832 0.317383C43.5449 0.528971 44.2643 0.835775 44.9414 1.23779C45.6185 1.63981 46.2215 2.12646 46.7505 2.69775C47.2795 3.26904 47.7132 3.91439 48.0518 4.63379L60.2393 31.8652C60.599 32.6481 60.7788 33.5262 60.7788 34.4995C60.7788 35.3459 60.6307 36.1393 60.3345 36.8799C60.0382 37.6204 59.6151 38.2658 59.0649 38.8159C58.5148 39.366 57.8695 39.8104 57.1289 40.1489C56.3883 40.4875 55.5949 40.6462 54.7485 40.625C53.5425 40.625 52.4422 40.297 51.4478 39.6411C50.4533 38.9852 49.7021 38.1071 49.1943 37.0068L41.228 19.1699L28.2788 32.5317C28.3211 32.8703 28.3529 33.1982 28.374 33.5156C28.3952 33.833 28.4163 34.1715 28.4375 34.5312V60.9375ZM44.2432 16.0596L50.5273 30.0244L54.2407 28.4375L47.2583 12.7905C46.8563 13.4041 46.3802 13.9754 45.8301 14.5044C45.2799 15.0334 44.751 15.5518 44.2432 16.0596ZM56.748 34.4995C56.748 34.0763 56.6528 33.6743 56.4624 33.2935C56.272 32.9126 56.0921 32.5317 55.9229 32.1509L52.1777 33.7378C52.3258 34.0552 52.4634 34.3726 52.5903 34.6899C52.7173 35.0073 52.876 35.3141 53.0664 35.6104C53.2568 35.9066 53.479 36.1287 53.7329 36.2769C53.9868 36.425 54.3359 36.5202 54.7803 36.5625C55.3516 36.5625 55.8171 36.3615 56.1768 35.9595C56.5365 35.5575 56.7269 35.0708 56.748 34.4995ZM20.4395 23.0737C21.7513 23.5604 22.9468 24.248 24.0259 25.1367C25.105 26.0254 26.0042 27.0728 26.7236 28.2788L43.5449 10.9497C43.9258 10.5477 44.2114 10.1034 44.4019 9.6167C44.5923 9.13005 44.6875 8.61165 44.6875 8.06152C44.6875 7.51139 44.5817 6.993 44.3701 6.50635C44.1585 6.01969 43.8729 5.59652 43.5132 5.23682C43.1535 4.87712 42.7303 4.59147 42.2437 4.37988C41.757 4.16829 41.2386 4.0625 40.6885 4.0625C39.5036 4.0625 38.5091 4.4751 37.7051 5.30029L20.4395 23.0737ZM8.125 60.9375H24.375V34.5312C24.375 33.4098 24.1634 32.3625 23.7402 31.3892C23.3171 30.4159 22.7352 29.5483 21.9946 28.7866C21.2541 28.0249 20.3971 27.443 19.4238 27.041C18.4505 26.639 17.3926 26.4274 16.25 26.4062C15.1286 26.4062 14.0812 26.6178 13.1079 27.041C12.1346 27.4642 11.2671 28.0461 10.5054 28.7866C9.74365 29.5272 9.16178 30.3841 8.75977 31.3574C8.35775 32.3307 8.14616 33.3887 8.125 34.5312V60.9375ZM16.25 32.5C16.8213 32.5 17.3503 32.6058 17.8369 32.8174C18.3236 33.029 18.7467 33.3146 19.1064 33.6743C19.4661 34.034 19.7624 34.4678 19.9951 34.9756C20.2279 35.4834 20.3337 36.0124 20.3125 36.5625C20.3125 37.1338 20.2067 37.6628 19.9951 38.1494C19.7835 38.6361 19.4979 39.0592 19.1382 39.4189C18.7785 39.7786 18.3447 40.0749 17.8369 40.3076C17.3291 40.5404 16.8001 40.6462 16.25 40.625C15.6787 40.625 15.1497 40.5192 14.6631 40.3076C14.1764 40.096 13.7533 39.8104 13.3936 39.4507C13.0339 39.091 12.7376 38.6572 12.5049 38.1494C12.2721 37.6416 12.1663 37.1126 12.1875 36.5625C12.1875 35.9912 12.2933 35.4622 12.5049 34.9756C12.7165 34.4889 13.0021 34.0658 13.3618 33.7061C13.7215 33.3464 14.1553 33.0501 14.6631 32.8174C15.1709 32.5846 15.6999 32.4788 16.25 32.5ZM44.6875 56.875V52.8125H65V56.875H44.6875ZM44.6875 44.6875H65V48.75H44.6875V44.6875ZM36.5625 48.75V44.6875H40.625V48.75H36.5625ZM44.6875 65V60.9375H65V65H44.6875ZM36.5625 65V60.9375H40.625V65H36.5625ZM36.5625 56.875V52.8125H40.625V56.875H36.5625Z"
        fill="#394D74" />
</svg>
    